<?xml version="1.0" encoding="UTF-8" standalone="yes"?><svg xmlns="http://www.w3.org/2000/svg" xmlns:xlink="http://www.w3.org/1999/xlink" height="618.4px" style="width:660px;height:618px;" version="1.1" viewBox="0 0 660 618" width="660px"><defs><filter height="300%" id="f1" width="300%" x="-1" y="-1"><feGaussianBlur result="blurOut" stdDeviation="1.600000023841858"/><feColorMatrix in="blurOut" result="blurOut2" type="matrix" values="0 0 0 0 0 0 0 0 0 0 0 0 0 0 0 0 0 0 .4 0"/><feOffset dx="3.200000047683716" dy="3.200000047683716" in="blurOut2" result="blurOut3"/><feBlend in="SourceGraphic" in2="blurOut3" mode="normal"/></filter></defs><g><polygon fill="#FFFFFF" filter="url(#f1)" points="531.2,516.8,635.2,516.8,640.8,534.6375,654.4,534.6375,654.4,612.8,531.2,612.8,531.2,516.8" style="stroke: #000000; stroke-width: 1.600000023841858;"/><line style="stroke: #000000; stroke-width: 1.600000023841858;" x1="531.2" x2="640.8" y1="534.6375" y2="534.6375"/><text fill="#000000" font-family="sans-serif" font-size="11.2" font-weight="bold" lengthAdjust="spacingAndGlyphs" textLength="99.2" x="534.4" y="528.7961">power_network</text><polygon fill="#FFFFFF" filter="url(#f1)" points="17.6,97.6,62.4,97.6,68,115.4375,512,115.4375,512,612.8,17.6,612.8,17.6,97.6" style="stroke: #000000; stroke-width: 1.600000023841858;"/><line style="stroke: #000000; stroke-width: 1.600000023841858;" x1="17.6" x2="68" y1="115.4375" y2="115.4375"/><text fill="#000000" font-family="sans-serif" font-size="11.2" font-weight="bold" lengthAdjust="spacingAndGlyphs" textLength="40" x="20.8" y="109.5961">pgtem</text><rect fill="#FEFECE" filter="url(#f1)" height="38.4" style="stroke: #A80036; stroke-width: 1.2000000178813934;" width="96.8" x="544.6" y="561.6"/><ellipse cx="556.6" cy="574.4" fill="#ADD1B2" rx="8.8" ry="8.8" style="stroke: #A80036; stroke-width: 0.800000011920929;"/><path d="M559,578.4 Q558.5125,578.8 557.9875,579 Q557.4625,579.2 556.875,579.2 Q554.7875,579.2 553.6938,577.9688 Q552.6,576.7375 552.6,574.4 Q552.6,572.0625 553.6938,570.8313 Q554.7875,569.6 556.875,569.6 Q557.4625,569.6 558,569.8 Q558.5375,570 559,570.4 L559,572.8 Q558.5125,571.975 558.05,571.5875 Q557.5875,571.2 557.1,571.2 Q556.0625,571.2 555.5313,572.0063 Q555,572.8125 555,574.4 Q555,575.9875 555.5313,576.7938 Q556.0625,577.6 557.1,577.6 Q557.5875,577.6 558.05,577.2125 Q558.5125,576.825 559,576 L559,578.4 Z "/><text fill="#000000" font-family="sans-serif" font-size="9.6" lengthAdjust="spacingAndGlyphs" textLength="71.2" x="567.8" y="577.7234">PowerNetwork</text><line style="stroke: #A80036; stroke-width: 1.2000000178813934;" x1="545.4" x2="640.6" y1="587.2" y2="587.2"/><line style="stroke: #A80036; stroke-width: 1.2000000178813934;" x1="545.4" x2="640.6" y1="593.6" y2="593.6"/><rect fill="#FEFECE" filter="url(#f1)" height="58.9166" style="stroke: #A80036; stroke-width: 1.2000000178813934;" width="63.2" x="428.6" y="341.6"/><ellipse cx="440.6" cy="354.4" fill="#ADD1B2" rx="8.8" ry="8.8" style="stroke: #A80036; stroke-width: 0.800000011920929;"/><path d="M443,358.4 Q442.5125,358.8 441.9875,359 Q441.4625,359.2 440.875,359.2 Q438.7875,359.2 437.6938,357.9688 Q436.6,356.7375 436.6,354.4 Q436.6,352.0625 437.6938,350.8313 Q438.7875,349.6 440.875,349.6 Q441.4625,349.6 442,349.8 Q442.5375,350 443,350.4 L443,352.8 Q442.5125,351.975 442.05,351.5875 Q441.5875,351.2 441.1,351.2 Q440.0625,351.2 439.5313,352.0063 Q439,352.8125 439,354.4 Q439,355.9875 439.5313,356.7938 Q440.0625,357.6 441.1,357.6 Q441.5875,357.6 442.05,357.2125 Q442.5125,356.825 443,356 L443,358.4 Z "/><text fill="#000000" font-family="sans-serif" font-size="9.6" lengthAdjust="spacingAndGlyphs" textLength="37.6" x="451.8" y="357.7234">Creator</text><line style="stroke: #A80036; stroke-width: 1.2000000178813934;" x1="429.4" x2="491" y1="367.2" y2="367.2"/><text fill="#000000" font-family="sans-serif" font-size="8.8" lengthAdjust="spacingAndGlyphs" textLength="19.2" x="433.4" y="378.58">type</text><line style="stroke: #A80036; stroke-width: 1.2000000178813934;" x1="429.4" x2="491" y1="383.8583" y2="383.8583"/><text fill="#000000" font-family="sans-serif" font-size="8.8" lengthAdjust="spacingAndGlyphs" textLength="52" x="433.4" y="395.2383">new_node()</text><rect fill="#FEFECE" filter="url(#f1)" height="38.4" style="stroke: #A80036; stroke-width: 1.2000000178813934;" width="46.4" x="362" y="561.6"/><ellipse cx="374" cy="574.4" fill="#ADD1B2" rx="8.8" ry="8.8" style="stroke: #A80036; stroke-width: 0.800000011920929;"/><path d="M376.4,578.4 Q375.9125,578.8 375.3875,579 Q374.8625,579.2 374.275,579.2 Q372.1875,579.2 371.0938,577.9688 Q370,576.7375 370,574.4 Q370,572.0625 371.0938,570.8313 Q372.1875,569.6 374.275,569.6 Q374.8625,569.6 375.4,569.8 Q375.9375,570 376.4,570.4 L376.4,572.8 Q375.9125,571.975 375.45,571.5875 Q374.9875,571.2 374.5,571.2 Q373.4625,571.2 372.9313,572.0063 Q372.4,572.8125 372.4,574.4 Q372.4,575.9875 372.9313,576.7938 Q373.4625,577.6 374.5,577.6 Q374.9875,577.6 375.45,577.2125 Q375.9125,576.825 376.4,576 L376.4,578.4 Z "/><text fill="#000000" font-family="sans-serif" font-size="9.6" lengthAdjust="spacingAndGlyphs" textLength="20.8" x="385.2" y="577.7234">Sink</text><line style="stroke: #A80036; stroke-width: 1.2000000178813934;" x1="362.8" x2="407.6" y1="587.2" y2="587.2"/><line style="stroke: #A80036; stroke-width: 1.2000000178813934;" x1="362.8" x2="407.6" y1="593.6" y2="593.6"/><rect fill="#FEFECE" filter="url(#f1)" height="38.4" style="stroke: #A80036; stroke-width: 1.2000000178813934;" width="60.8" x="436" y="561.6"/><ellipse cx="448" cy="574.4" fill="#ADD1B2" rx="8.8" ry="8.8" style="stroke: #A80036; stroke-width: 0.800000011920929;"/><path d="M450.4,578.4 Q449.9125,578.8 449.3875,579 Q448.8625,579.2 448.275,579.2 Q446.1875,579.2 445.0938,577.9688 Q444,576.7375 444,574.4 Q444,572.0625 445.0938,570.8313 Q446.1875,569.6 448.275,569.6 Q448.8625,569.6 449.4,569.8 Q449.9375,570 450.4,570.4 L450.4,572.8 Q449.9125,571.975 449.45,571.5875 Q448.9875,571.2 448.5,571.2 Q447.4625,571.2 446.9313,572.0063 Q446.4,572.8125 446.4,574.4 Q446.4,575.9875 446.9313,576.7938 Q447.4625,577.6 448.5,577.6 Q448.9875,577.6 449.45,577.2125 Q449.9125,576.825 450.4,576 L450.4,578.4 Z "/><text fill="#000000" font-family="sans-serif" font-size="9.6" lengthAdjust="spacingAndGlyphs" textLength="35.2" x="459.2" y="577.7234">Source</text><line style="stroke: #A80036; stroke-width: 1.2000000178813934;" x1="436.8" x2="496" y1="587.2" y2="587.2"/><line style="stroke: #A80036; stroke-width: 1.2000000178813934;" x1="436.8" x2="496" y1="593.6" y2="593.6"/><rect fill="#FEFECE" filter="url(#f1)" height="58.9166" style="stroke: #A80036; stroke-width: 1.2000000178813934;" width="84.8" x="383.6" y="142.4"/><ellipse cx="395.6" cy="155.2" fill="#ADD1B2" rx="8.8" ry="8.8" style="stroke: #A80036; stroke-width: 0.800000011920929;"/><path d="M398,159.2 Q397.5125,159.6 396.9875,159.8 Q396.4625,160 395.875,160 Q393.7875,160 392.6938,158.7688 Q391.6,157.5375 391.6,155.2 Q391.6,152.8625 392.6938,151.6313 Q393.7875,150.4 395.875,150.4 Q396.4625,150.4 397,150.6 Q397.5375,150.8 398,151.2 L398,153.6 Q397.5125,152.775 397.05,152.3875 Q396.5875,152 396.1,152 Q395.0625,152 394.5313,152.8063 Q394,153.6125 394,155.2 Q394,156.7875 394.5313,157.5938 Q395.0625,158.4 396.1,158.4 Q396.5875,158.4 397.05,158.0125 Q397.5125,157.625 398,156.8 L398,159.2 Z "/><text fill="#000000" font-family="sans-serif" font-size="9.6" lengthAdjust="spacingAndGlyphs" textLength="59.2" x="406.8" y="158.5234">Coordinator</text><line style="stroke: #A80036; stroke-width: 1.2000000178813934;" x1="384.4" x2="467.6" y1="168" y2="168"/><line style="stroke: #A80036; stroke-width: 1.2000000178813934;" x1="384.4" x2="467.6" y1="174.4" y2="174.4"/><text fill="#000000" font-family="sans-serif" font-size="8.8" lengthAdjust="spacingAndGlyphs" textLength="57.6" x="388.4" y="185.78">proposition()</text><text fill="#000000" font-family="sans-serif" font-size="8.8" lengthAdjust="spacingAndGlyphs" textLength="56.8" x="388.4" y="196.0383">negotiation()</text><rect fill="#FEFECE" filter="url(#f1)" height="58.9166" style="stroke: #A80036; stroke-width: 1.2000000178813934;" width="66.4" x="104.6" y="341.6"/><ellipse cx="116.6" cy="354.4" fill="#ADD1B2" rx="8.8" ry="8.8" style="stroke: #A80036; stroke-width: 0.800000011920929;"/><path d="M119,358.4 Q118.5125,358.8 117.9875,359 Q117.4625,359.2 116.875,359.2 Q114.7875,359.2 113.6938,357.9688 Q112.6,356.7375 112.6,354.4 Q112.6,352.0625 113.6938,350.8313 Q114.7875,349.6 116.875,349.6 Q117.4625,349.6 118,349.8 Q118.5375,350 119,350.4 L119,352.8 Q118.5125,351.975 118.05,351.5875 Q117.5875,351.2 117.1,351.2 Q116.0625,351.2 115.5313,352.0063 Q115,352.8125 115,354.4 Q115,355.9875 115.5313,356.7938 Q116.0625,357.6 117.1,357.6 Q117.5875,357.6 118.05,357.2125 Q118.5125,356.825 119,356 L119,358.4 Z "/><text fill="#000000" font-family="sans-serif" font-size="9.6" lengthAdjust="spacingAndGlyphs" textLength="40.8" x="127.8" y="357.7234">Provider</text><line style="stroke: #A80036; stroke-width: 1.2000000178813934;" x1="105.4" x2="170.2" y1="367.2" y2="367.2"/><text fill="#000000" font-family="sans-serif" font-size="8.8" lengthAdjust="spacingAndGlyphs" textLength="19.2" x="109.4" y="378.58">type</text><line style="stroke: #A80036; stroke-width: 1.2000000178813934;" x1="105.4" x2="170.2" y1="383.8583" y2="383.8583"/><text fill="#000000" font-family="sans-serif" font-size="8.8" lengthAdjust="spacingAndGlyphs" textLength="50.4" x="109.4" y="395.2383">get_costs()</text><rect fill="#FEFECE" filter="url(#f1)" height="38.4" style="stroke: #A80036; stroke-width: 1.2000000178813934;" width="39.2" x="50.2" y="561.6"/><ellipse cx="62.2" cy="574.4" fill="#ADD1B2" rx="8.8" ry="8.8" style="stroke: #A80036; stroke-width: 0.800000011920929;"/><path d="M64.6,578.4 Q64.1125,578.8 63.5875,579 Q63.0625,579.2 62.475,579.2 Q60.3875,579.2 59.2938,577.9688 Q58.2,576.7375 58.2,574.4 Q58.2,572.0625 59.2938,570.8313 Q60.3875,569.6 62.475,569.6 Q63.0625,569.6 63.6,569.8 Q64.1375,570 64.6,570.4 L64.6,572.8 Q64.1125,571.975 63.65,571.5875 Q63.1875,571.2 62.7,571.2 Q61.6625,571.2 61.1313,572.0063 Q60.6,572.8125 60.6,574.4 Q60.6,575.9875 61.1313,576.7938 Q61.6625,577.6 62.7,577.6 Q63.1875,577.6 63.65,577.2125 Q64.1125,576.825 64.6,576 L64.6,578.4 Z "/><text fill="#000000" font-family="sans-serif" font-size="9.6" lengthAdjust="spacingAndGlyphs" textLength="13.6" x="73.4" y="577.7234">HV</text><line style="stroke: #A80036; stroke-width: 1.2000000178813934;" x1="51" x2="88.6" y1="587.2" y2="587.2"/><line style="stroke: #A80036; stroke-width: 1.2000000178813934;" x1="51" x2="88.6" y1="593.6" y2="593.6"/><rect fill="#FEFECE" filter="url(#f1)" height="38.4" style="stroke: #A80036; stroke-width: 1.2000000178813934;" width="40" x="117.6" y="561.6"/><ellipse cx="129.6" cy="574.4" fill="#ADD1B2" rx="8.8" ry="8.8" style="stroke: #A80036; stroke-width: 0.800000011920929;"/><path d="M132,578.4 Q131.5125,578.8 130.9875,579 Q130.4625,579.2 129.875,579.2 Q127.7875,579.2 126.6938,577.9688 Q125.6,576.7375 125.6,574.4 Q125.6,572.0625 126.6938,570.8313 Q127.7875,569.6 129.875,569.6 Q130.4625,569.6 131,569.8 Q131.5375,570 132,570.4 L132,572.8 Q131.5125,571.975 131.05,571.5875 Q130.5875,571.2 130.1,571.2 Q129.0625,571.2 128.5313,572.0063 Q128,572.8125 128,574.4 Q128,575.9875 128.5313,576.7938 Q129.0625,577.6 130.1,577.6 Q130.5875,577.6 131.05,577.2125 Q131.5125,576.825 132,576 L132,578.4 Z "/><text fill="#000000" font-family="sans-serif" font-size="9.6" lengthAdjust="spacingAndGlyphs" textLength="14.4" x="140.8" y="577.7234">MV</text><line style="stroke: #A80036; stroke-width: 1.2000000178813934;" x1="118.4" x2="156.8" y1="587.2" y2="587.2"/><line style="stroke: #A80036; stroke-width: 1.2000000178813934;" x1="118.4" x2="156.8" y1="593.6" y2="593.6"/><rect fill="#FEFECE" filter="url(#f1)" height="38.4" style="stroke: #A80036; stroke-width: 1.2000000178813934;" width="36.8" x="185.6" y="561.6"/><ellipse cx="197.6" cy="574.4" fill="#ADD1B2" rx="8.8" ry="8.8" style="stroke: #A80036; stroke-width: 0.800000011920929;"/><path d="M200,578.4 Q199.5125,578.8 198.9875,579 Q198.4625,579.2 197.875,579.2 Q195.7875,579.2 194.6938,577.9688 Q193.6,576.7375 193.6,574.4 Q193.6,572.0625 194.6938,570.8313 Q195.7875,569.6 197.875,569.6 Q198.4625,569.6 199,569.8 Q199.5375,570 200,570.4 L200,572.8 Q199.5125,571.975 199.05,571.5875 Q198.5875,571.2 198.1,571.2 Q197.0625,571.2 196.5313,572.0063 Q196,572.8125 196,574.4 Q196,575.9875 196.5313,576.7938 Q197.0625,577.6 198.1,577.6 Q198.5875,577.6 199.05,577.2125 Q199.5125,576.825 200,576 L200,578.4 Z "/><text fill="#000000" font-family="sans-serif" font-size="9.6" lengthAdjust="spacingAndGlyphs" textLength="11.2" x="208.8" y="577.7234">LV</text><line style="stroke: #A80036; stroke-width: 1.2000000178813934;" x1="186.4" x2="221.6" y1="587.2" y2="587.2"/><line style="stroke: #A80036; stroke-width: 1.2000000178813934;" x1="186.4" x2="221.6" y1="593.6" y2="593.6"/><rect fill="#FEFECE" filter="url(#f1)" height="48.6583" style="stroke: #A80036; stroke-width: 1.2000000178813934;" width="74.4" x="218.2" y="346.8"/><ellipse cx="230.2" cy="359.6" fill="#ADD1B2" rx="8.8" ry="8.8" style="stroke: #A80036; stroke-width: 0.800000011920929;"/><path d="M232.6,363.6 Q232.1125,364 231.5875,364.2 Q231.0625,364.4 230.475,364.4 Q228.3875,364.4 227.2938,363.1688 Q226.2,361.9375 226.2,359.6 Q226.2,357.2625 227.2938,356.0313 Q228.3875,354.8 230.475,354.8 Q231.0625,354.8 231.6,355 Q232.1375,355.2 232.6,355.6 L232.6,358 Q232.1125,357.175 231.65,356.7875 Q231.1875,356.4 230.7,356.4 Q229.6625,356.4 229.1313,357.2063 Q228.6,358.0125 228.6,359.6 Q228.6,361.1875 229.1313,361.9938 Q229.6625,362.8 230.7,362.8 Q231.1875,362.8 231.65,362.4125 Q232.1125,362.025 232.6,361.2 L232.6,363.6 Z "/><text fill="#000000" font-family="sans-serif" font-size="9.6" lengthAdjust="spacingAndGlyphs" textLength="48.8" x="241.4" y="362.9234">Regulator</text><line style="stroke: #A80036; stroke-width: 1.2000000178813934;" x1="219" x2="291.8" y1="372.4" y2="372.4"/><line style="stroke: #A80036; stroke-width: 1.2000000178813934;" x1="219" x2="291.8" y1="378.8" y2="378.8"/><text fill="#000000" font-family="sans-serif" font-size="8.8" lengthAdjust="spacingAndGlyphs" textLength="44.8" x="223" y="390.18">evaluate()</text><rect fill="#FEFECE" filter="url(#f1)" height="29.0375" style="stroke: #A80036; stroke-width: 1.2000000178813934;" width="137.6" x="157.6" y="157.6"/><rect fill="#FEFECE" height="4" style="stroke: #A80036; stroke-width: 1.2000000178813934;" width="8" x="153.6" y="161.6"/><rect fill="#FEFECE" height="4" style="stroke: #A80036; stroke-width: 1.2000000178813934;" width="8" x="153.6" y="178.6375"/><text fill="#000000" font-family="sans-serif" font-size="11.2" lengthAdjust="spacingAndGlyphs" textLength="121.6" x="165.6" y="175.9961">NegotiatedExtensions</text><rect fill="#FEFECE" filter="url(#f1)" height="29.0375" style="stroke: #A80036; stroke-width: 1.2000000178813934;" width="99.2" x="30.8" y="157.6"/><rect fill="#FEFECE" height="4" style="stroke: #A80036; stroke-width: 1.2000000178813934;" width="8" x="26.8" y="161.6"/><rect fill="#FEFECE" height="4" style="stroke: #A80036; stroke-width: 1.2000000178813934;" width="8" x="26.8" y="178.6375"/><text fill="#000000" font-family="sans-serif" font-size="11.2" lengthAdjust="spacingAndGlyphs" textLength="83.2" x="38.8" y="175.9961">GridExtensions</text><ellipse cx="497.6" cy="172" fill="#000000" rx="1.6" ry="1.6" style="stroke: none; stroke-width: 0.800000011920929;"/><rect fill="#FEFECE" filter="url(#f1)" height="188.4162" style="stroke: #A80036; stroke-width: 1.2000000178813934;" width="106.4" x="532.6" y="276.8"/><ellipse cx="558.28" cy="289.6" fill="#ADD1B2" rx="8.8" ry="8.8" style="stroke: #A80036; stroke-width: 0.800000011920929;"/><path d="M560.68,293.6 Q560.1925,294 559.6675,294.2 Q559.1425,294.4 558.555,294.4 Q556.4675,294.4 555.3738,293.1688 Q554.28,291.9375 554.28,289.6 Q554.28,287.2625 555.3738,286.0313 Q556.4675,284.8 558.555,284.8 Q559.1425,284.8 559.68,285 Q560.2175,285.2 560.68,285.6 L560.68,288 Q560.1925,287.175 559.73,286.7875 Q559.2675,286.4 558.78,286.4 Q557.7425,286.4 557.2113,287.2063 Q556.68,288.0125 556.68,289.6 Q556.68,291.1875 557.2113,291.9938 Q557.7425,292.8 558.78,292.8 Q559.2675,292.8 559.73,292.4125 Q560.1925,292.025 560.68,291.2 L560.68,293.6 Z "/><text fill="#000000" font-family="sans-serif" font-size="9.6" lengthAdjust="spacingAndGlyphs" textLength="50.4" x="572.52" y="292.9234">PowerGrid</text><line style="stroke: #A80036; stroke-width: 1.2000000178813934;" x1="533.4" x2="638.2" y1="302.4" y2="302.4"/><text fill="#000000" font-family="sans-serif" font-size="8.8" lengthAdjust="spacingAndGlyphs" textLength="80.8" x="537.4" y="313.78">nodes DataFrame</text><text fill="#000000" font-family="sans-serif" font-size="8.8" lengthAdjust="spacingAndGlyphs" textLength="80.8" x="537.4" y="324.0383">edges DataFrame</text><text fill="#000000" font-family="sans-serif" font-size="8.8" lengthAdjust="spacingAndGlyphs" textLength="44.8" x="537.4" y="334.2966">adjacency</text><text fill="#000000" font-family="sans-serif" font-size="8.8" lengthAdjust="spacingAndGlyphs" textLength="84" x="537.4" y="344.5549">distance_measure</text><text fill="#000000" font-family="sans-serif" font-size="8.8" lengthAdjust="spacingAndGlyphs" textLength="29.6" x="537.4" y="354.8132">n_final</text><text fill="#000000" font-family="sans-serif" font-size="8.8" lengthAdjust="spacingAndGlyphs" textLength="81.6" x="537.4" y="365.0715">number_of_edges</text><text fill="#000000" font-family="sans-serif" font-size="8.8" lengthAdjust="spacingAndGlyphs" textLength="81.6" x="537.4" y="375.3298">number_of_nodes</text><line style="stroke: #A80036; stroke-width: 1.2000000178813934;" x1="533.4" x2="638.2" y1="380.6081" y2="380.6081"/><text fill="#000000" font-family="sans-serif" font-size="8.8" lengthAdjust="spacingAndGlyphs" textLength="37.6" x="548.6" y="391.9881">update()</text><ellipse cx="541.4" cy="400.3956" fill="#84BE84" rx="2.4" ry="2.4" style="stroke: #038048; stroke-width: 0.800000011920929;"/><text fill="#000000" font-family="sans-serif" font-size="8.8" lengthAdjust="spacingAndGlyphs" textLength="50.4" x="548.6" y="402.2464">add_node()</text><ellipse cx="541.4" cy="410.6539" fill="#84BE84" rx="2.4" ry="2.4" style="stroke: #038048; stroke-width: 0.800000011920929;"/><text fill="#000000" font-family="sans-serif" font-size="8.8" lengthAdjust="spacingAndGlyphs" textLength="50.4" x="548.6" y="412.5047">add_edge()</text><text fill="#000000" font-family="sans-serif" font-size="8.8" lengthAdjust="spacingAndGlyphs" textLength="82.4" x="548.6" y="422.763">import_from_rpg()</text><text fill="#000000" font-family="sans-serif" font-size="8.8" lengthAdjust="spacingAndGlyphs" textLength="85.6" x="548.6" y="433.0213">get_closest_node()</text><line style="stroke: #A80036; stroke-width: 0.800000011920929; stroke-dasharray: 1.0,2.0;" x1="533.4" x2="638.2" y1="438.2996" y2="438.2996"/><text fill="#000000" font-family="sans-serif" font-size="8.8" lengthAdjust="spacingAndGlyphs" textLength="87.2" x="537.4" y="449.6796">convert_to_igraph()</text><text fill="#000000" font-family="sans-serif" font-size="8.8" lengthAdjust="spacingAndGlyphs" textLength="28" x="537.4" y="459.9379">save()</text><path d="M588.8416,465.656 C589.8264,494.1024 590.8472,523.592 591.6056,545.4968 " fill="none" style="stroke: #A80036; stroke-width: 0.800000011920929;"/><polygon fill="none" points="597.2064,545.4144,592.1632,561.5984,586.0128,545.8018,597.2064,545.4144" style="stroke: #A80036; stroke-width: 0.800000011920929;"/><text fill="#000000" font-family="sans-serif" font-size="10.4" lengthAdjust="spacingAndGlyphs" textLength="64" x="590.4" y="500.0651">derive from?</text><path d="M444.0536,416.108 C427.7536,461.1928 403.2176,529.0584 391.496,561.4786 " fill="none" style="stroke: #A80036; stroke-width: 0.800000011920929; stroke-dasharray: 7.0,7.0;"/><polygon fill="none" points="438.8376,414.064,449.544,400.9216,449.3704,417.872,438.8376,414.064" style="stroke: #A80036; stroke-width: 0.800000011920929;"/><path d="M461.3848,416.9992 C462.772,462.0824 464.8392,529.2712 465.8304,561.4786 " fill="none" style="stroke: #A80036; stroke-width: 0.800000011920929; stroke-dasharray: 7.0,7.0;"/><polygon fill="none" points="455.7848,417.0864,460.8896,400.9216,466.9792,416.7416,455.7848,417.0864" style="stroke: #A80036; stroke-width: 0.800000011920929;"/><path d="M123.0832,416.404 C108.344,461.4896 86.2304,529.1296 75.6551,561.4786 " fill="none" style="stroke: #A80036; stroke-width: 0.800000011920929; stroke-dasharray: 7.0,7.0;"/><polygon fill="none" points="117.8504,414.3896,128.1448,400.9216,128.496,417.8696,117.8504,414.3896" style="stroke: #A80036; stroke-width: 0.800000011920929;"/><path d="M137.6,416.9992 C137.6,462.0824 137.6,529.2712 137.6,561.4786 " fill="none" style="stroke: #A80036; stroke-width: 0.800000011920929; stroke-dasharray: 7.0,7.0;"/><polygon fill="none" points="132,416.9216,137.6,400.9216,143.2,416.9216,132,416.9216" style="stroke: #A80036; stroke-width: 0.800000011920929;"/><path d="M151.7752,416.404 C166.168,461.4896 187.7608,529.1296 198.0872,561.4786 " fill="none" style="stroke: #A80036; stroke-width: 0.800000011920929; stroke-dasharray: 7.0,7.0;"/><polygon fill="none" points="146.364,417.8664,146.8328,400.9216,157.0336,414.4608,146.364,417.8664" style="stroke: #A80036; stroke-width: 0.800000011920929;"/><path d="M88.6368,153.8976 C98.7504,135.06 117.4536,106.636 143.2,94.4 C209.6744,62.8072 238.3408,73.128 308.8,94.4 C340.0304,103.8288 370.568,124.648 392.5816,142.3504 " fill="none" style="stroke: #A80036; stroke-width: 0.800000011920929;"/><polygon fill="#A80036" points="86.7296,157.5296,92.9104,152.6431,88.5894,153.9883,87.2442,149.6673,86.7296,157.5296" style="stroke: #A80036; stroke-width: 0.800000011920929;"/><text fill="#000000" font-family="sans-serif" font-size="10.4" lengthAdjust="spacingAndGlyphs" textLength="56.8" x="280" y="80.8651">proposition</text><path d="M573.0752,272.628 C568.6176,256.2832 562.5792,239.9832 554.4,225.6 C538.96,198.4472 504.856,177.1448 498.5968,173.3896 " fill="none" style="stroke: #A80036; stroke-width: 0.800000011920929;"/><polygon fill="#A80036" points="574.1168,276.5592,575.3652,268.7796,573.0919,272.6927,569.1788,270.4195,574.1168,276.5592" style="stroke: #A80036; stroke-width: 0.800000011920929;"/><text fill="#000000" font-family="sans-serif" font-size="10.4" lengthAdjust="spacingAndGlyphs" textLength="48.8" x="566.4" y="242.4651">new node</text><path d="M497.104,173.712 C495.1384,177.3136 487.6656,190.8744 480.8,201.6 C473.78,212.5664 468.0856,213.2376 464,225.6 C451.256,264.1632 452.9992,311.6984 456.0232,341.5384 " fill="none" style="stroke: #A80036; stroke-width: 0.800000011920929;"/><path d="M497.8792,170.3776 C499.3728,161.0816 505.476,114.3056 480.8,94.4 C451.604,70.8488 177.0792,78.2984 143.2,94.4 C115.7376,107.452 96.288,138.9216 86.7296,157.5296 " fill="none" style="stroke: #A80036; stroke-width: 0.800000011920929; stroke-dasharray: 7.0,7.0;"/><text fill="#000000" font-family="sans-serif" font-size="10.4" lengthAdjust="spacingAndGlyphs" textLength="64.8" x="192" y="80.8651">necessitates</text><path d="M73.3,186.5528 C66.3758,202.6232 57.433,229.9288 64,252.8 C73.0914,284.4632 93.4768,315.8616 110.4936,338.2392 " fill="none" style="stroke: #A80036; stroke-width: 0.800000011920929;"/><polygon fill="#A80036" points="112.9776,341.4744,111.13,333.815,110.5412,338.302,106.0542,337.7133,112.9776,341.4744" style="stroke: #A80036; stroke-width: 0.800000011920929;"/><text fill="#000000" font-family="sans-serif" font-size="10.4" lengthAdjust="spacingAndGlyphs" textLength="16.8" x="71.6" y="236.4651">get</text><text fill="#000000" font-family="sans-serif" font-size="10.4" lengthAdjust="spacingAndGlyphs" textLength="27.2" x="68" y="248.5859">costs</text><path d="M150.5448,341.5952 C169.2064,300.0688 203.1104,224.6248 218.4648,190.4568 " fill="none" style="stroke: #A80036; stroke-width: 0.800000011920929;"/><polygon fill="#A80036" points="220.156,186.6952,214.2851,191.95,218.5159,190.3435,220.1224,194.5742,220.156,186.6952" style="stroke: #A80036; stroke-width: 0.800000011920929;"/><text fill="#000000" font-family="sans-serif" font-size="10.4" lengthAdjust="spacingAndGlyphs" textLength="21.6" x="213.6" y="236.4651">cost</text><text fill="#000000" font-family="sans-serif" font-size="10.4" lengthAdjust="spacingAndGlyphs" textLength="37.6" x="207.2" y="248.5859">ranking</text><path d="M85.8576,186.684 C93.8384,204.1512 109.6416,234.1176 131.2,252.8 C150.68,269.6816 163.8528,260.7208 184,276.8 C207.0808,295.22 226.808,322.7032 239.604,343.1288 " fill="none" style="stroke: #A80036; stroke-width: 0.800000011920929;"/><polygon fill="#A80036" points="241.7544,346.5992,240.6811,338.7936,239.6471,343.1993,235.2413,342.1653,241.7544,346.5992" style="stroke: #A80036; stroke-width: 0.800000011920929;"/><text fill="#000000" font-family="sans-serif" font-size="10.4" lengthAdjust="spacingAndGlyphs" textLength="52.8" x="132" y="242.4651">evaluation</text><path d="M261.2504,346.7128 C267.612,317.5192 275.0872,266.728 262.4,225.6 C258.316,212.36 249.6496,199.4728 241.8432,189.7448 " fill="none" style="stroke: #A80036; stroke-width: 0.800000011920929;"/><polygon fill="#A80036" points="239.2368,186.5712,241.3326,194.1664,241.7751,189.6626,246.2789,190.1052,239.2368,186.5712" style="stroke: #A80036; stroke-width: 0.800000011920929;"/><text fill="#000000" font-family="sans-serif" font-size="10.4" lengthAdjust="spacingAndGlyphs" textLength="41.6" x="270.4" y="236.4651">possible</text><text fill="#000000" font-family="sans-serif" font-size="10.4" lengthAdjust="spacingAndGlyphs" textLength="41.6" x="272" y="248.5859">grid ext.</text><path d="M299.3848,172 C327.6888,172 359.088,172 383.4872,172 " fill="none" style="stroke: #A80036; stroke-width: 0.800000011920929;"/><polygon fill="#A80036" points="295.232,172,302.432,175.2,299.232,172,302.432,168.8,295.232,172" style="stroke: #A80036; stroke-width: 0.800000011920929;"/><text fill="#000000" font-family="sans-serif" font-size="10.4" lengthAdjust="spacingAndGlyphs" textLength="57.6" x="310" y="165.6651">negotiation</text><path d="M294.6464,186.4008 C355.9096,201.0888 446.0792,229.0544 512,276.8 C518.0744,281.1992 523.9048,286.232 529.4392,291.6296 " fill="none" style="stroke: #A80036; stroke-width: 0.800000011920929;"/><polygon fill="#A80036" points="532.4832,294.664,529.6444,287.3141,529.6508,291.8396,525.1253,291.846,532.4832,294.664" style="stroke: #A80036; stroke-width: 0.800000011920929;"/><text fill="#000000" font-family="sans-serif" font-size="10.4" lengthAdjust="spacingAndGlyphs" textLength="58.4" x="471.2" y="242.4651">grid update</text></g></svg>