<?xml version="1.0" encoding="UTF-8" standalone="yes"?><svg xmlns="http://www.w3.org/2000/svg" xmlns:xlink="http://www.w3.org/1999/xlink" height="1063.2px" style="width:730px;height:1063px;" version="1.1" viewBox="0 0 730 1063" width="730.4px"><defs><filter height="300%" id="f1" width="300%" x="-1" y="-1"><feGaussianBlur result="blurOut" stdDeviation="1.600000023841858"/><feColorMatrix in="blurOut" result="blurOut2" type="matrix" values="0 0 0 0 0 0 0 0 0 0 0 0 0 0 0 0 0 0 .4 0"/><feOffset dx="3.200000047683716" dy="3.200000047683716" in="blurOut2" result="blurOut3"/><feBlend in="SourceGraphic" in2="blurOut3" mode="normal"/></filter></defs><g><polygon fill="#FFFFFF" filter="url(#f1)" points="150.4,580.8,188,580.8,193.6,598.6375,270.4,598.6375,270.4,1057.6,150.4,1057.6,150.4,580.8" style="stroke: #000000; stroke-width: 1.600000023841858;"/><line style="stroke: #000000; stroke-width: 1.600000023841858;" x1="150.4" x2="193.6" y1="598.6375" y2="598.6375"/><text fill="#000000" font-family="sans-serif" font-size="11.2" font-weight="bold" lengthAdjust="spacingAndGlyphs" textLength="32.8" x="153.6" y="592.7961">rpgm</text><polygon fill="#FFFFFF" filter="url(#f1)" points="17.6,19.2,121.6,19.2,127.2,37.0375,724.8,37.0375,724.8,528,17.6,528,17.6,19.2" style="stroke: #000000; stroke-width: 1.600000023841858;"/><line style="stroke: #000000; stroke-width: 1.600000023841858;" x1="17.6" x2="127.2" y1="37.0375" y2="37.0375"/><text fill="#000000" font-family="sans-serif" font-size="11.2" font-weight="bold" lengthAdjust="spacingAndGlyphs" textLength="99.2" x="20.8" y="31.1961">power_network</text><polygon fill="#FFFFFF" filter="url(#f1)" points="289.6,693.6,334.4,693.6,340,711.4375,371.2,711.4375,371.2,773.6,289.6,773.6,289.6,693.6" style="stroke: #000000; stroke-width: 1.600000023841858;"/><line style="stroke: #000000; stroke-width: 1.600000023841858;" x1="289.6" x2="340" y1="711.4375" y2="711.4375"/><text fill="#000000" font-family="sans-serif" font-size="11.2" font-weight="bold" lengthAdjust="spacingAndGlyphs" textLength="40" x="292.8" y="705.5961">igraph</text><rect fill="#FEFECE" filter="url(#f1)" height="264.0826" style="stroke: #A80036; stroke-width: 1.2000000178813934;" width="93.6" x="163.8" y="609.6"/><ellipse cx="176.52" cy="622.4" fill="#ADD1B2" rx="8.8" ry="8.8" style="stroke: #A80036; stroke-width: 0.800000011920929;"/><path d="M178.92,626.4 Q178.4325,626.8 177.9075,627 Q177.3825,627.2 176.795,627.2 Q174.7075,627.2 173.6138,625.9688 Q172.52,624.7375 172.52,622.4 Q172.52,620.0625 173.6138,618.8313 Q174.7075,617.6 176.795,617.6 Q177.3825,617.6 177.92,617.8 Q178.4575,618 178.92,618.4 L178.92,620.8 Q178.4325,619.975 177.97,619.5875 Q177.5075,619.2 177.02,619.2 Q175.9825,619.2 175.4513,620.0063 Q174.92,620.8125 174.92,622.4 Q174.92,623.9875 175.4513,624.7938 Q175.9825,625.6 177.02,625.6 Q177.5075,625.6 177.97,625.2125 Q178.4325,624.825 178.92,624 L178.92,626.4 Z "/><text fill="#000000" font-family="sans-serif" font-size="9.6" lengthAdjust="spacingAndGlyphs" textLength="66.4" x="187.88" y="625.7234">RpgAlgorithm</text><line style="stroke: #A80036; stroke-width: 1.2000000178813934;" x1="164.6" x2="256.6" y1="635.2" y2="635.2"/><text fill="#000000" font-family="sans-serif" font-size="8.8" lengthAdjust="spacingAndGlyphs" textLength="5.6" x="168.6" y="646.58">n</text><text fill="#000000" font-family="sans-serif" font-size="8.8" lengthAdjust="spacingAndGlyphs" textLength="11.2" x="168.6" y="656.8383">n0</text><text fill="#000000" font-family="sans-serif" font-size="8.8" lengthAdjust="spacingAndGlyphs" textLength="5.6" x="168.6" y="667.0966">p</text><text fill="#000000" font-family="sans-serif" font-size="8.8" lengthAdjust="spacingAndGlyphs" textLength="5.6" x="168.6" y="677.3549">q</text><text fill="#000000" font-family="sans-serif" font-size="8.8" lengthAdjust="spacingAndGlyphs" textLength="4" x="168.6" y="687.6132">r</text><text fill="#000000" font-family="sans-serif" font-size="8.8" lengthAdjust="spacingAndGlyphs" textLength="5.6" x="168.6" y="697.8715">s</text><text fill="#000000" font-family="sans-serif" font-size="8.8" lengthAdjust="spacingAndGlyphs" textLength="60.8" x="168.6" y="708.1298">added_edges</text><text fill="#000000" font-family="sans-serif" font-size="8.8" lengthAdjust="spacingAndGlyphs" textLength="60.8" x="168.6" y="718.3881">added_nodes</text><text fill="#000000" font-family="sans-serif" font-size="8.8" lengthAdjust="spacingAndGlyphs" textLength="44.8" x="168.6" y="728.6464">adjacency</text><text fill="#000000" font-family="sans-serif" font-size="8.8" lengthAdjust="spacingAndGlyphs" textLength="41.6" x="168.6" y="738.9047">dGmatrix</text><text fill="#000000" font-family="sans-serif" font-size="8.8" lengthAdjust="spacingAndGlyphs" textLength="28" x="168.6" y="749.163">debug</text><text fill="#000000" font-family="sans-serif" font-size="8.8" lengthAdjust="spacingAndGlyphs" textLength="38.4" x="168.6" y="759.4213">distance</text><text fill="#000000" font-family="sans-serif" font-size="8.8" lengthAdjust="spacingAndGlyphs" textLength="84" x="168.6" y="769.6796">distance_measure</text><text fill="#000000" font-family="sans-serif" font-size="8.8" lengthAdjust="spacingAndGlyphs" textLength="46.4" x="168.6" y="779.9379">init_edges</text><text fill="#000000" font-family="sans-serif" font-size="8.8" lengthAdjust="spacingAndGlyphs" textLength="11.2" x="168.6" y="790.1962">lat</text><text fill="#000000" font-family="sans-serif" font-size="8.8" lengthAdjust="spacingAndGlyphs" textLength="13.6" x="168.6" y="800.4545">lon</text><text fill="#000000" font-family="sans-serif" font-size="8.8" lengthAdjust="spacingAndGlyphs" textLength="57.6" x="168.6" y="810.7128">low_memory</text><text fill="#000000" font-family="sans-serif" font-size="8.8" lengthAdjust="spacingAndGlyphs" textLength="50.4" x="168.6" y="820.9711">mst_edges</text><line style="stroke: #A80036; stroke-width: 1.2000000178813934;" x1="164.6" x2="256.6" y1="826.2494" y2="826.2494"/><text fill="#000000" font-family="sans-serif" font-size="8.8" lengthAdjust="spacingAndGlyphs" textLength="60.8" x="168.6" y="837.6294">set_params()</text><text fill="#000000" font-family="sans-serif" font-size="8.8" lengthAdjust="spacingAndGlyphs" textLength="44" x="168.6" y="847.8877">initialise()</text><text fill="#000000" font-family="sans-serif" font-size="8.8" lengthAdjust="spacingAndGlyphs" textLength="28.8" x="168.6" y="858.146">grow()</text><text fill="#000000" font-family="sans-serif" font-size="8.8" lengthAdjust="spacingAndGlyphs" textLength="42.4" x="168.6" y="868.4043">edgelist()</text><rect fill="#FEFECE" filter="url(#f1)" height="120.4664" style="stroke: #A80036; stroke-width: 1.2000000178813934;" width="72.8" x="174.2" y="923.6"/><ellipse cx="198.44" cy="936.4" fill="#ADD1B2" rx="8.8" ry="8.8" style="stroke: #A80036; stroke-width: 0.800000011920929;"/><path d="M200.84,940.4 Q200.3525,940.8 199.8275,941 Q199.3025,941.2 198.715,941.2 Q196.6275,941.2 195.5338,939.9688 Q194.44,938.7375 194.44,936.4 Q194.44,934.0625 195.5338,932.8313 Q196.6275,931.6 198.715,931.6 Q199.3025,931.6 199.84,931.8 Q200.3775,932 200.84,932.4 L200.84,934.8 Q200.3525,933.975 199.89,933.5875 Q199.4275,933.2 198.94,933.2 Q197.9025,933.2 197.3713,934.0063 Q196.84,934.8125 196.84,936.4 Q196.84,937.9875 197.3713,938.7938 Q197.9025,939.6 198.94,939.6 Q199.4275,939.6 199.89,939.2125 Q200.3525,938.825 200.84,938 L200.84,940.4 Z "/><text fill="#000000" font-family="sans-serif" font-size="9.6" lengthAdjust="spacingAndGlyphs" textLength="20" x="212.36" y="939.7235">RPG</text><line style="stroke: #A80036; stroke-width: 1.2000000178813934;" x1="175" x2="246.2" y1="949.2" y2="949.2"/><text fill="#000000" font-family="sans-serif" font-size="8.8" lengthAdjust="spacingAndGlyphs" textLength="42.4" x="179" y="960.58">basepath</text><text fill="#000000" font-family="sans-serif" font-size="8.8" lengthAdjust="spacingAndGlyphs" textLength="23.2" x="179" y="970.8383">figdir</text><text fill="#000000" font-family="sans-serif" font-size="8.8" lengthAdjust="spacingAndGlyphs" textLength="40" x="179" y="981.0966">identifier</text><text fill="#000000" font-family="sans-serif" font-size="8.8" lengthAdjust="spacingAndGlyphs" textLength="26.4" x="179" y="991.3549">netdir</text><line style="stroke: #A80036; stroke-width: 1.2000000178813934;" x1="175" x2="246.2" y1="996.6332" y2="996.6332"/><text fill="#000000" font-family="sans-serif" font-size="8.8" lengthAdjust="spacingAndGlyphs" textLength="59.2" x="179" y="1008.0132">save_graph()</text><text fill="#000000" font-family="sans-serif" font-size="8.8" lengthAdjust="spacingAndGlyphs" textLength="29.6" x="179" y="1018.2715">stats()</text><text fill="#000000" font-family="sans-serif" font-size="8.8" lengthAdjust="spacingAndGlyphs" textLength="42.4" x="179" y="1028.5298">plot_net()</text><text fill="#000000" font-family="sans-serif" font-size="8.8" lengthAdjust="spacingAndGlyphs" textLength="63.2" x="179" y="1038.7881">bs_predictor()</text><rect fill="#FEFECE" filter="url(#f1)" height="167.8996" style="stroke: #A80036; stroke-width: 1.2000000178813934;" width="115.2" x="220.8" y="299.2"/><ellipse cx="241.08" cy="312" fill="#ADD1B2" rx="8.8" ry="8.8" style="stroke: #A80036; stroke-width: 0.800000011920929;"/><path d="M243.48,316 Q242.9925,316.4 242.4675,316.6 Q241.9425,316.8 241.355,316.8 Q239.2675,316.8 238.1738,315.5688 Q237.08,314.3375 237.08,312 Q237.08,309.6625 238.1738,308.4313 Q239.2675,307.2 241.355,307.2 Q241.9425,307.2 242.48,307.4 Q243.0175,307.6 243.48,308 L243.48,310.4 Q242.9925,309.575 242.53,309.1875 Q242.0675,308.8 241.58,308.8 Q240.5425,308.8 240.0113,309.6063 Q239.48,310.4125 239.48,312 Q239.48,313.5875 240.0113,314.3938 Q240.5425,315.2 241.58,315.2 Q242.0675,315.2 242.53,314.8125 Q242.9925,314.425 243.48,313.6 L243.48,316 Z "/><text fill="#000000" font-family="sans-serif" font-size="9.6" lengthAdjust="spacingAndGlyphs" textLength="71.2" x="254.12" y="315.3234">PowerNetwork</text><line style="stroke: #A80036; stroke-width: 1.2000000178813934;" x1="221.6" x2="335.2" y1="324.8" y2="324.8"/><text fill="#000000" font-family="sans-serif" font-size="8.8" lengthAdjust="spacingAndGlyphs" textLength="28" x="225.6" y="336.18">pbase</text><text fill="#000000" font-family="sans-serif" font-size="8.8" lengthAdjust="spacingAndGlyphs" textLength="22.4" x="225.6" y="346.4383">rfreq</text><text fill="#000000" font-family="sans-serif" font-size="8.8" lengthAdjust="spacingAndGlyphs" textLength="27.2" x="225.6" y="356.6966">vbase</text><line style="stroke: #A80036; stroke-width: 1.2000000178813934;" x1="221.6" x2="335.2" y1="361.9749" y2="361.9749"/><text fill="#000000" font-family="sans-serif" font-size="8.8" lengthAdjust="spacingAndGlyphs" textLength="56" x="225.6" y="373.3549">add_buses()</text><text fill="#000000" font-family="sans-serif" font-size="8.8" lengthAdjust="spacingAndGlyphs" textLength="70.4" x="225.6" y="383.6132">add_branches()</text><text fill="#000000" font-family="sans-serif" font-size="8.8" lengthAdjust="spacingAndGlyphs" textLength="60" x="225.6" y="393.8715">vertex_filter()</text><text fill="#000000" font-family="sans-serif" font-size="8.8" lengthAdjust="spacingAndGlyphs" textLength="54.4" x="225.6" y="404.1298">edge_filter()</text><text fill="#000000" font-family="sans-serif" font-size="8.8" lengthAdjust="spacingAndGlyphs" textLength="90.4" x="225.6" y="414.3881">RandomPowerGrid()</text><text fill="#000000" font-family="sans-serif" font-size="8.8" lengthAdjust="spacingAndGlyphs" textLength="99.2" x="225.6" y="424.6464">SmallTestPowerGrid()</text><line style="stroke: #A80036; stroke-width: 0.800000011920929; stroke-dasharray: 1.0,2.0;" x1="221.6" x2="335.2" y1="429.9247" y2="429.9247"/><text fill="#000000" font-family="sans-serif" font-size="8.8" lengthAdjust="spacingAndGlyphs" textLength="105.6" x="225.6" y="441.3047">convert_igraph_object()</text><text fill="#000000" font-family="sans-serif" font-size="8.8" lengthAdjust="spacingAndGlyphs" textLength="28" x="225.6" y="451.563">save()</text><text fill="#000000" font-family="sans-serif" font-size="8.8" lengthAdjust="spacingAndGlyphs" textLength="46.4" x="225.6" y="461.8213">visualise()</text><rect fill="#FEFECE" filter="url(#f1)" height="130.7247" style="stroke: #A80036; stroke-width: 1.2000000178813934;" width="57.6" x="468.8" y="53.2"/><ellipse cx="486.92" cy="66" fill="#ADD1B2" rx="8.8" ry="8.8" style="stroke: #A80036; stroke-width: 0.800000011920929;"/><path d="M489.32,70 Q488.8325,70.4 488.3075,70.6 Q487.7825,70.8 487.195,70.8 Q485.1075,70.8 484.0138,69.5688 Q482.92,68.3375 482.92,66 Q482.92,63.6625 484.0138,62.4313 Q485.1075,61.2 487.195,61.2 Q487.7825,61.2 488.32,61.4 Q488.8575,61.6 489.32,62 L489.32,64.4 Q488.8325,63.575 488.37,63.1875 Q487.9075,62.8 487.42,62.8 Q486.3825,62.8 485.8513,63.6063 Q485.32,64.4125 485.32,66 Q485.32,67.5875 485.8513,68.3938 Q486.3825,69.2 487.42,69.2 Q487.9075,69.2 488.37,68.8125 Q488.8325,68.425 489.32,67.6 L489.32,70 Z "/><text fill="#000000" font-family="sans-serif" font-size="9.6" lengthAdjust="spacingAndGlyphs" textLength="18.4" x="499.48" y="69.3234">Bus</text><line style="stroke: #A80036; stroke-width: 1.2000000178813934;" x1="469.6" x2="525.6" y1="78.8" y2="78.8"/><text fill="#000000" font-family="sans-serif" font-size="8.8" lengthAdjust="spacingAndGlyphs" textLength="31.2" x="473.6" y="90.18">Bus_ID</text><text fill="#000000" font-family="sans-serif" font-size="8.8" lengthAdjust="spacingAndGlyphs" textLength="26.4" x="473.6" y="100.4383">Name</text><text fill="#000000" font-family="sans-serif" font-size="8.8" lengthAdjust="spacingAndGlyphs" textLength="21.6" x="473.6" y="110.6966">Type</text><text fill="#000000" font-family="sans-serif" font-size="8.8" lengthAdjust="spacingAndGlyphs" textLength="48" x="473.6" y="120.9549">comments</text><text fill="#000000" font-family="sans-serif" font-size="8.8" lengthAdjust="spacingAndGlyphs" textLength="11.2" x="473.6" y="131.2132">lat</text><text fill="#000000" font-family="sans-serif" font-size="8.8" lengthAdjust="spacingAndGlyphs" textLength="13.6" x="473.6" y="141.4715">lon</text><text fill="#000000" font-family="sans-serif" font-size="8.8" lengthAdjust="spacingAndGlyphs" textLength="39.2" x="473.6" y="151.7298">operator</text><text fill="#000000" font-family="sans-serif" font-size="8.8" lengthAdjust="spacingAndGlyphs" textLength="31.2" x="473.6" y="161.9881">source</text><text fill="#000000" font-family="sans-serif" font-size="8.8" lengthAdjust="spacingAndGlyphs" textLength="16" x="473.6" y="172.2464">volt</text><line style="stroke: #A80036; stroke-width: 1.2000000178813934;" x1="469.6" x2="525.6" y1="177.5247" y2="177.5247"/><rect fill="#FEFECE" filter="url(#f1)" height="151.2413" style="stroke: #A80036; stroke-width: 1.2000000178813934;" width="76.8" x="557.6" y="307.6"/><ellipse cx="569.6" cy="320.4" fill="#ADD1B2" rx="8.8" ry="8.8" style="stroke: #A80036; stroke-width: 0.800000011920929;"/><path d="M572,324.4 Q571.5125,324.8 570.9875,325 Q570.4625,325.2 569.875,325.2 Q567.7875,325.2 566.6938,323.9688 Q565.6,322.7375 565.6,320.4 Q565.6,318.0625 566.6938,316.8313 Q567.7875,315.6 569.875,315.6 Q570.4625,315.6 571,315.8 Q571.5375,316 572,316.4 L572,318.8 Q571.5125,317.975 571.05,317.5875 Q570.5875,317.2 570.1,317.2 Q569.0625,317.2 568.5313,318.0063 Q568,318.8125 568,320.4 Q568,321.9875 568.5313,322.7938 Q569.0625,323.6 570.1,323.6 Q570.5875,323.6 571.05,323.2125 Q571.5125,322.825 572,322 L572,324.4 Z "/><text fill="#000000" font-family="sans-serif" font-size="9.6" lengthAdjust="spacingAndGlyphs" textLength="51.2" x="580.8" y="323.7234">Generator</text><line style="stroke: #A80036; stroke-width: 1.2000000178813934;" x1="558.4" x2="633.6" y1="333.2" y2="333.2"/><text fill="#000000" font-family="sans-serif" font-size="8.8" lengthAdjust="spacingAndGlyphs" textLength="6.4" x="562.4" y="344.58">D</text><text fill="#000000" font-family="sans-serif" font-size="8.8" lengthAdjust="spacingAndGlyphs" textLength="6.4" x="562.4" y="354.8383">H</text><text fill="#000000" font-family="sans-serif" font-size="8.8" lengthAdjust="spacingAndGlyphs" textLength="30.4" x="562.4" y="365.0966">MBase</text><text fill="#000000" font-family="sans-serif" font-size="8.8" lengthAdjust="spacingAndGlyphs" textLength="12.8" x="562.4" y="375.3549">PG</text><text fill="#000000" font-family="sans-serif" font-size="8.8" lengthAdjust="spacingAndGlyphs" textLength="23.2" x="562.4" y="385.6132">PMax</text><text fill="#000000" font-family="sans-serif" font-size="8.8" lengthAdjust="spacingAndGlyphs" textLength="20.8" x="562.4" y="395.8715">PMin</text><text fill="#000000" font-family="sans-serif" font-size="8.8" lengthAdjust="spacingAndGlyphs" textLength="14.4" x="562.4" y="406.1298">QG</text><text fill="#000000" font-family="sans-serif" font-size="8.8" lengthAdjust="spacingAndGlyphs" textLength="24.8" x="562.4" y="416.3881">QMax</text><text fill="#000000" font-family="sans-serif" font-size="8.8" lengthAdjust="spacingAndGlyphs" textLength="22.4" x="562.4" y="426.6464">QMin</text><text fill="#000000" font-family="sans-serif" font-size="8.8" lengthAdjust="spacingAndGlyphs" textLength="29.6" x="562.4" y="436.9047">Status</text><line style="stroke: #A80036; stroke-width: 1.2000000178813934;" x1="558.4" x2="633.6" y1="442.183" y2="442.183"/><text fill="#000000" font-family="sans-serif" font-size="8.8" lengthAdjust="spacingAndGlyphs" textLength="37.6" x="562.4" y="453.563">default()</text><rect fill="#FEFECE" filter="url(#f1)" height="140.983" style="stroke: #A80036; stroke-width: 1.2000000178813934;" width="49.6" x="662.8" y="312.8"/><ellipse cx="674.8" cy="325.6" fill="#ADD1B2" rx="8.8" ry="8.8" style="stroke: #A80036; stroke-width: 0.800000011920929;"/><path d="M677.2,329.6 Q676.7125,330 676.1875,330.2 Q675.6625,330.4 675.075,330.4 Q672.9875,330.4 671.8938,329.1688 Q670.8,327.9375 670.8,325.6 Q670.8,323.2625 671.8938,322.0313 Q672.9875,320.8 675.075,320.8 Q675.6625,320.8 676.2,321 Q676.7375,321.2 677.2,321.6 L677.2,324 Q676.7125,323.175 676.25,322.7875 Q675.7875,322.4 675.3,322.4 Q674.2625,322.4 673.7313,323.2063 Q673.2,324.0125 673.2,325.6 Q673.2,327.1875 673.7313,327.9938 Q674.2625,328.8 675.3,328.8 Q675.7875,328.8 676.25,328.4125 Q676.7125,328.025 677.2,327.2 L677.2,329.6 Z "/><text fill="#000000" font-family="sans-serif" font-size="9.6" lengthAdjust="spacingAndGlyphs" textLength="24" x="686" y="328.9234">Load</text><line style="stroke: #A80036; stroke-width: 1.2000000178813934;" x1="663.6" x2="711.6" y1="338.4" y2="338.4"/><text fill="#000000" font-family="sans-serif" font-size="8.8" lengthAdjust="spacingAndGlyphs" textLength="12.8" x="667.6" y="349.78">BS</text><text fill="#000000" font-family="sans-serif" font-size="8.8" lengthAdjust="spacingAndGlyphs" textLength="13.6" x="667.6" y="360.0383">GS</text><text fill="#000000" font-family="sans-serif" font-size="8.8" lengthAdjust="spacingAndGlyphs" textLength="12" x="667.6" y="370.2966">PD</text><text fill="#000000" font-family="sans-serif" font-size="8.8" lengthAdjust="spacingAndGlyphs" textLength="13.6" x="667.6" y="380.5549">QD</text><text fill="#000000" font-family="sans-serif" font-size="8.8" lengthAdjust="spacingAndGlyphs" textLength="11.2" x="667.6" y="390.8132">VA</text><text fill="#000000" font-family="sans-serif" font-size="8.8" lengthAdjust="spacingAndGlyphs" textLength="28.8" x="667.6" y="401.0715">VBase</text><text fill="#000000" font-family="sans-serif" font-size="8.8" lengthAdjust="spacingAndGlyphs" textLength="12.8" x="667.6" y="411.3298">VM</text><text fill="#000000" font-family="sans-serif" font-size="8.8" lengthAdjust="spacingAndGlyphs" textLength="23.2" x="667.6" y="421.5881">VMax</text><text fill="#000000" font-family="sans-serif" font-size="8.8" lengthAdjust="spacingAndGlyphs" textLength="20.8" x="667.6" y="431.8464">VMin</text><line style="stroke: #A80036; stroke-width: 1.2000000178813934;" x1="663.6" x2="711.6" y1="437.1247" y2="437.1247"/><text fill="#000000" font-family="sans-serif" font-size="8.8" lengthAdjust="spacingAndGlyphs" textLength="37.6" x="667.6" y="448.5047">default()</text><rect fill="#FEFECE" filter="url(#f1)" height="264.0826" style="stroke: #A80036; stroke-width: 1.2000000178813934;" width="73.6" x="364" y="251.2"/><ellipse cx="376" cy="264" fill="#ADD1B2" rx="8.8" ry="8.8" style="stroke: #A80036; stroke-width: 0.800000011920929;"/><path d="M378.4,268 Q377.9125,268.4 377.3875,268.6 Q376.8625,268.8 376.275,268.8 Q374.1875,268.8 373.0938,267.5688 Q372,266.3375 372,264 Q372,261.6625 373.0938,260.4313 Q374.1875,259.2 376.275,259.2 Q376.8625,259.2 377.4,259.4 Q377.9375,259.6 378.4,260 L378.4,262.4 Q377.9125,261.575 377.45,261.1875 Q376.9875,260.8 376.5,260.8 Q375.4625,260.8 374.9313,261.6063 Q374.4,262.4125 374.4,264 Q374.4,265.5875 374.9313,266.3938 Q375.4625,267.2 376.5,267.2 Q376.9875,267.2 377.45,266.8125 Q377.9125,266.425 378.4,265.6 L378.4,268 Z "/><text fill="#000000" font-family="sans-serif" font-size="9.6" lengthAdjust="spacingAndGlyphs" textLength="48" x="387.2" y="267.3234">Prosumer</text><line style="stroke: #A80036; stroke-width: 1.2000000178813934;" x1="364.8" x2="436.8" y1="276.8" y2="276.8"/><text fill="#000000" font-family="sans-serif" font-size="8.8" lengthAdjust="spacingAndGlyphs" textLength="12.8" x="368.8" y="288.18">BS</text><text fill="#000000" font-family="sans-serif" font-size="8.8" lengthAdjust="spacingAndGlyphs" textLength="6.4" x="368.8" y="298.4383">D</text><text fill="#000000" font-family="sans-serif" font-size="8.8" lengthAdjust="spacingAndGlyphs" textLength="13.6" x="368.8" y="308.6966">GS</text><text fill="#000000" font-family="sans-serif" font-size="8.8" lengthAdjust="spacingAndGlyphs" textLength="6.4" x="368.8" y="318.9549">H</text><text fill="#000000" font-family="sans-serif" font-size="8.8" lengthAdjust="spacingAndGlyphs" textLength="7.2" x="368.8" y="329.2132">M</text><text fill="#000000" font-family="sans-serif" font-size="8.8" lengthAdjust="spacingAndGlyphs" textLength="30.4" x="368.8" y="339.4715">MBase</text><text fill="#000000" font-family="sans-serif" font-size="8.8" lengthAdjust="spacingAndGlyphs" textLength="12" x="368.8" y="349.7298">PD</text><text fill="#000000" font-family="sans-serif" font-size="8.8" lengthAdjust="spacingAndGlyphs" textLength="12.8" x="368.8" y="359.9881">PG</text><text fill="#000000" font-family="sans-serif" font-size="8.8" lengthAdjust="spacingAndGlyphs" textLength="23.2" x="368.8" y="370.2464">PMax</text><text fill="#000000" font-family="sans-serif" font-size="8.8" lengthAdjust="spacingAndGlyphs" textLength="20.8" x="368.8" y="380.5047">PMin</text><text fill="#000000" font-family="sans-serif" font-size="8.8" lengthAdjust="spacingAndGlyphs" textLength="13.6" x="368.8" y="390.763">QD</text><text fill="#000000" font-family="sans-serif" font-size="8.8" lengthAdjust="spacingAndGlyphs" textLength="14.4" x="368.8" y="401.0213">QG</text><text fill="#000000" font-family="sans-serif" font-size="8.8" lengthAdjust="spacingAndGlyphs" textLength="24.8" x="368.8" y="411.2796">QMax</text><text fill="#000000" font-family="sans-serif" font-size="8.8" lengthAdjust="spacingAndGlyphs" textLength="22.4" x="368.8" y="421.5379">QMin</text><text fill="#000000" font-family="sans-serif" font-size="8.8" lengthAdjust="spacingAndGlyphs" textLength="29.6" x="368.8" y="431.7962">Status</text><text fill="#000000" font-family="sans-serif" font-size="8.8" lengthAdjust="spacingAndGlyphs" textLength="11.2" x="368.8" y="442.0545">VA</text><text fill="#000000" font-family="sans-serif" font-size="8.8" lengthAdjust="spacingAndGlyphs" textLength="28.8" x="368.8" y="452.3128">VBase</text><text fill="#000000" font-family="sans-serif" font-size="8.8" lengthAdjust="spacingAndGlyphs" textLength="12.8" x="368.8" y="462.5711">VM</text><text fill="#000000" font-family="sans-serif" font-size="8.8" lengthAdjust="spacingAndGlyphs" textLength="23.2" x="368.8" y="472.8294">VMax</text><text fill="#000000" font-family="sans-serif" font-size="8.8" lengthAdjust="spacingAndGlyphs" textLength="20.8" x="368.8" y="483.0877">VMin</text><text fill="#000000" font-family="sans-serif" font-size="8.8" lengthAdjust="spacingAndGlyphs" textLength="10.4" x="368.8" y="493.346">kP</text><line style="stroke: #A80036; stroke-width: 1.2000000178813934;" x1="364.8" x2="436.8" y1="498.6243" y2="498.6243"/><text fill="#000000" font-family="sans-serif" font-size="8.8" lengthAdjust="spacingAndGlyphs" textLength="37.6" x="368.8" y="510.0043">default()</text><rect fill="#FEFECE" filter="url(#f1)" height="48.6583" style="stroke: #A80036; stroke-width: 1.2000000178813934;" width="63.2" x="466.2" y="358.8"/><ellipse cx="478.2" cy="371.6" fill="#ADD1B2" rx="8.8" ry="8.8" style="stroke: #A80036; stroke-width: 0.800000011920929;"/><path d="M480.6,375.6 Q480.1125,376 479.5875,376.2 Q479.0625,376.4 478.475,376.4 Q476.3875,376.4 475.2938,375.1688 Q474.2,373.9375 474.2,371.6 Q474.2,369.2625 475.2938,368.0313 Q476.3875,366.8 478.475,366.8 Q479.0625,366.8 479.6,367 Q480.1375,367.2 480.6,367.6 L480.6,370 Q480.1125,369.175 479.65,368.7875 Q479.1875,368.4 478.7,368.4 Q477.6625,368.4 477.1313,369.2063 Q476.6,370.0125 476.6,371.6 Q476.6,373.1875 477.1313,373.9938 Q477.6625,374.8 478.7,374.8 Q479.1875,374.8 479.65,374.4125 Q480.1125,374.025 480.6,373.2 L480.6,375.6 Z "/><text fill="#000000" font-family="sans-serif" font-size="9.6" lengthAdjust="spacingAndGlyphs" textLength="37.6" x="489.4" y="374.9234">Passive</text><line style="stroke: #A80036; stroke-width: 1.2000000178813934;" x1="467" x2="528.6" y1="384.4" y2="384.4"/><line style="stroke: #A80036; stroke-width: 1.2000000178813934;" x1="467" x2="528.6" y1="390.8" y2="390.8"/><text fill="#000000" font-family="sans-serif" font-size="8.8" lengthAdjust="spacingAndGlyphs" textLength="37.6" x="471" y="402.18">default()</text><rect fill="#FEFECE" filter="url(#f1)" height="140.983" style="stroke: #A80036; stroke-width: 1.2000000178813934;" width="60.8" x="138.4" y="48"/><ellipse cx="150.4" cy="60.8" fill="#ADD1B2" rx="8.8" ry="8.8" style="stroke: #A80036; stroke-width: 0.800000011920929;"/><path d="M152.8,64.8 Q152.3125,65.2 151.7875,65.4 Q151.2625,65.6 150.675,65.6 Q148.5875,65.6 147.4938,64.3688 Q146.4,63.1375 146.4,60.8 Q146.4,58.4625 147.4938,57.2313 Q148.5875,56 150.675,56 Q151.2625,56 151.8,56.2 Q152.3375,56.4 152.8,56.8 L152.8,59.2 Q152.3125,58.375 151.85,57.9875 Q151.3875,57.6 150.9,57.6 Q149.8625,57.6 149.3313,58.4063 Q148.8,59.2125 148.8,60.8 Q148.8,62.3875 149.3313,63.1938 Q149.8625,64 150.9,64 Q151.3875,64 151.85,63.6125 Q152.3125,63.225 152.8,62.4 L152.8,64.8 Z "/><text fill="#000000" font-family="sans-serif" font-size="9.6" lengthAdjust="spacingAndGlyphs" textLength="35.2" x="161.6" y="64.1234">Branch</text><line style="stroke: #A80036; stroke-width: 1.2000000178813934;" x1="139.2" x2="198.4" y1="73.6" y2="73.6"/><text fill="#000000" font-family="sans-serif" font-size="8.8" lengthAdjust="spacingAndGlyphs" textLength="45.6" x="143.2" y="84.98">Branch_ID</text><text fill="#000000" font-family="sans-serif" font-size="8.8" lengthAdjust="spacingAndGlyphs" textLength="23.2" x="143.2" y="95.2383">Bus1</text><text fill="#000000" font-family="sans-serif" font-size="8.8" lengthAdjust="spacingAndGlyphs" textLength="23.2" x="143.2" y="105.4966">Bus2</text><text fill="#000000" font-family="sans-serif" font-size="8.8" lengthAdjust="spacingAndGlyphs" textLength="26.4" x="143.2" y="115.7549">Name</text><text fill="#000000" font-family="sans-serif" font-size="8.8" lengthAdjust="spacingAndGlyphs" textLength="21.6" x="143.2" y="126.0132">Type</text><text fill="#000000" font-family="sans-serif" font-size="8.8" lengthAdjust="spacingAndGlyphs" textLength="48" x="143.2" y="136.2715">comments</text><text fill="#000000" font-family="sans-serif" font-size="8.8" lengthAdjust="spacingAndGlyphs" textLength="39.2" x="143.2" y="146.5298">operator</text><text fill="#000000" font-family="sans-serif" font-size="8.8" lengthAdjust="spacingAndGlyphs" textLength="31.2" x="143.2" y="156.7881">source</text><text fill="#000000" font-family="sans-serif" font-size="8.8" lengthAdjust="spacingAndGlyphs" textLength="27.2" x="143.2" y="167.0464">target</text><text fill="#000000" font-family="sans-serif" font-size="8.8" lengthAdjust="spacingAndGlyphs" textLength="16" x="143.2" y="177.3047">volt</text><line style="stroke: #A80036; stroke-width: 1.2000000178813934;" x1="139.2" x2="198.4" y1="182.583" y2="182.583"/><rect fill="#FEFECE" filter="url(#f1)" height="140.983" style="stroke: #A80036; stroke-width: 1.2000000178813934;" width="47.2" x="145.4" y="312.8"/><ellipse cx="158.12" cy="325.6" fill="#ADD1B2" rx="8.8" ry="8.8" style="stroke: #A80036; stroke-width: 0.800000011920929;"/><path d="M160.52,329.6 Q160.0325,330 159.5075,330.2 Q158.9825,330.4 158.395,330.4 Q156.3075,330.4 155.2138,329.1688 Q154.12,327.9375 154.12,325.6 Q154.12,323.2625 155.2138,322.0313 Q156.3075,320.8 158.395,320.8 Q158.9825,320.8 159.52,321 Q160.0575,321.2 160.52,321.6 L160.52,324 Q160.0325,323.175 159.57,322.7875 Q159.1075,322.4 158.62,322.4 Q157.5825,322.4 157.0513,323.2063 Q156.52,324.0125 156.52,325.6 Q156.52,327.1875 157.0513,327.9938 Q157.5825,328.8 158.62,328.8 Q159.1075,328.8 159.57,328.4125 Q160.0325,328.025 160.52,327.2 L160.52,329.6 Z "/><text fill="#000000" font-family="sans-serif" font-size="9.6" lengthAdjust="spacingAndGlyphs" textLength="20" x="169.48" y="328.9234">Line</text><line style="stroke: #A80036; stroke-width: 1.2000000178813934;" x1="146.2" x2="191.8" y1="338.4" y2="338.4"/><text fill="#000000" font-family="sans-serif" font-size="8.8" lengthAdjust="spacingAndGlyphs" textLength="6.4" x="150.2" y="349.78">B</text><text fill="#000000" font-family="sans-serif" font-size="8.8" lengthAdjust="spacingAndGlyphs" textLength="6.4" x="150.2" y="360.0383">C</text><text fill="#000000" font-family="sans-serif" font-size="8.8" lengthAdjust="spacingAndGlyphs" textLength="7.2" x="150.2" y="370.2966">G</text><text fill="#000000" font-family="sans-serif" font-size="8.8" lengthAdjust="spacingAndGlyphs" textLength="2.4" x="150.2" y="380.5549">I</text><text fill="#000000" font-family="sans-serif" font-size="8.8" lengthAdjust="spacingAndGlyphs" textLength="4.8" x="150.2" y="390.8132">L</text><text fill="#000000" font-family="sans-serif" font-size="8.8" lengthAdjust="spacingAndGlyphs" textLength="5.6" x="150.2" y="401.0715">R</text><text fill="#000000" font-family="sans-serif" font-size="8.8" lengthAdjust="spacingAndGlyphs" textLength="5.6" x="150.2" y="411.3298">X</text><text fill="#000000" font-family="sans-serif" font-size="8.8" lengthAdjust="spacingAndGlyphs" textLength="29.6" x="150.2" y="421.5881">cables</text><text fill="#000000" font-family="sans-serif" font-size="8.8" lengthAdjust="spacingAndGlyphs" textLength="24.8" x="150.2" y="431.8464">wires</text><line style="stroke: #A80036; stroke-width: 1.2000000178813934;" x1="146.2" x2="191.8" y1="437.1247" y2="437.1247"/><text fill="#000000" font-family="sans-serif" font-size="8.8" lengthAdjust="spacingAndGlyphs" textLength="37.6" x="150.2" y="448.5047">default()</text><rect fill="#FEFECE" filter="url(#f1)" height="89.6915" style="stroke: #A80036; stroke-width: 1.2000000178813934;" width="86.4" x="30.4" y="338.4"/><ellipse cx="42.4" cy="351.2" fill="#ADD1B2" rx="8.8" ry="8.8" style="stroke: #A80036; stroke-width: 0.800000011920929;"/><path d="M44.8,355.2 Q44.3125,355.6 43.7875,355.8 Q43.2625,356 42.675,356 Q40.5875,356 39.4938,354.7688 Q38.4,353.5375 38.4,351.2 Q38.4,348.8625 39.4938,347.6313 Q40.5875,346.4 42.675,346.4 Q43.2625,346.4 43.8,346.6 Q44.3375,346.8 44.8,347.2 L44.8,349.6 Q44.3125,348.775 43.85,348.3875 Q43.3875,348 42.9,348 Q41.8625,348 41.3313,348.8063 Q40.8,349.6125 40.8,351.2 Q40.8,352.7875 41.3313,353.5938 Q41.8625,354.4 42.9,354.4 Q43.3875,354.4 43.85,354.0125 Q44.3125,353.625 44.8,352.8 L44.8,355.2 Z "/><text fill="#000000" font-family="sans-serif" font-size="9.6" lengthAdjust="spacingAndGlyphs" textLength="60.8" x="53.6" y="354.5234">Transformer</text><line style="stroke: #A80036; stroke-width: 1.2000000178813934;" x1="31.2" x2="116" y1="364" y2="364"/><text fill="#000000" font-family="sans-serif" font-size="8.8" lengthAdjust="spacingAndGlyphs" textLength="23.2" x="35.2" y="375.38">AMax</text><text fill="#000000" font-family="sans-serif" font-size="8.8" lengthAdjust="spacingAndGlyphs" textLength="20.8" x="35.2" y="385.6383">AMin</text><text fill="#000000" font-family="sans-serif" font-size="8.8" lengthAdjust="spacingAndGlyphs" textLength="20.8" x="35.2" y="395.8966">Shift</text><text fill="#000000" font-family="sans-serif" font-size="8.8" lengthAdjust="spacingAndGlyphs" textLength="16.8" x="35.2" y="406.1549">Tap</text><line style="stroke: #A80036; stroke-width: 1.2000000178813934;" x1="31.2" x2="116" y1="411.4332" y2="411.4332"/><text fill="#000000" font-family="sans-serif" font-size="8.8" lengthAdjust="spacingAndGlyphs" textLength="37.6" x="35.2" y="422.8132">default()</text><rect fill="#FEFECE" filter="url(#f1)" height="38.4" style="stroke: #A80036; stroke-width: 1.2000000178813934;" width="56" x="302.4" y="722.4"/><ellipse cx="314.4" cy="735.2" fill="#ADD1B2" rx="8.8" ry="8.8" style="stroke: #A80036; stroke-width: 0.800000011920929;"/><path d="M316.8,739.2 Q316.3125,739.6 315.7875,739.8 Q315.2625,740 314.675,740 Q312.5875,740 311.4938,738.7688 Q310.4,737.5375 310.4,735.2 Q310.4,732.8625 311.4938,731.6313 Q312.5875,730.4 314.675,730.4 Q315.2625,730.4 315.8,730.6 Q316.3375,730.8 316.8,731.2 L316.8,733.6 Q316.3125,732.775 315.85,732.3875 Q315.3875,732 314.9,732 Q313.8625,732 313.3313,732.8063 Q312.8,733.6125 312.8,735.2 Q312.8,736.7875 313.3313,737.5938 Q313.8625,738.4 314.9,738.4 Q315.3875,738.4 315.85,738.0125 Q316.3125,737.625 316.8,736.8 L316.8,739.2 Z "/><text fill="#000000" font-family="sans-serif" font-size="9.6" lengthAdjust="spacingAndGlyphs" textLength="30.4" x="325.6" y="738.5234">Graph</text><line style="stroke: #A80036; stroke-width: 1.2000000178813934;" x1="303.2" x2="357.6" y1="748" y2="748"/><line style="stroke: #A80036; stroke-width: 1.2000000178813934;" x1="303.2" x2="357.6" y1="754.4" y2="754.4"/><path d="M210.4,889.8888 C210.4,901.6128 210.4,912.976 210.4,923.5016 " fill="none" style="stroke: #A80036; stroke-width: 0.800000011920929;"/><polygon fill="none" points="204.8,889.7216,210.4,873.7216,216,889.7216,204.8,889.7216" style="stroke: #A80036; stroke-width: 0.800000011920929;"/><path d="M527.4552,199.056 C540.3304,233.496 555.3072,273.556 567.972,307.4312 " fill="none" style="stroke: #A80036; stroke-width: 0.800000011920929; stroke-dasharray: 7.0,7.0;"/><polygon fill="none" points="522.1552,200.872,521.7976,183.92,532.6456,196.952,522.1552,200.872" style="stroke: #A80036; stroke-width: 0.800000011920929;"/><path d="M539.8192,145.984 C573.9384,169.712 620.752,207.336 648.8,251.2 C660.5624,269.592 668.8304,291.7136 674.596,312.5032 " fill="none" style="stroke: #A80036; stroke-width: 0.800000011920929; stroke-dasharray: 7.0,7.0;"/><polygon fill="none" points="536.636,150.592,526.5216,136.984,542.912,141.312,536.636,150.592" style="stroke: #A80036; stroke-width: 0.800000011920929;"/><path d="M468.2688,198.952 C458.6208,225.184 447.7696,254.688 437.636,282.2416 " fill="none" style="stroke: #A80036; stroke-width: 0.800000011920929; stroke-dasharray: 7.0,7.0;"/><polygon fill="none" points="463.0176,197.008,473.796,183.92,473.5288,200.872,463.0176,197.008" style="stroke: #A80036; stroke-width: 0.800000011920929;"/><path d="M497.6,200.04 C497.6,254.736 497.6,323.2456 497.6,358.6968 " fill="none" style="stroke: #A80036; stroke-width: 0.800000011920929; stroke-dasharray: 7.0,7.0;"/><polygon fill="none" points="492,199.92,497.6,183.92,503.2,199.92,492,199.92" style="stroke: #A80036; stroke-width: 0.800000011920929;"/><path d="M168.8,205.176 C168.8,240.008 168.8,279.7072 168.8,312.6888 " fill="none" style="stroke: #A80036; stroke-width: 0.800000011920929; stroke-dasharray: 7.0,7.0;"/><polygon fill="none" points="163.2,205.04,168.8,189.04,174.4,205.04,163.2,205.04" style="stroke: #A80036; stroke-width: 0.800000011920929;"/><path d="M138.0712,204.16 C121.9056,248.848 102.7576,301.7864 89.552,338.2968 " fill="none" style="stroke: #A80036; stroke-width: 0.800000011920929; stroke-dasharray: 7.0,7.0;"/><polygon fill="none" points="132.8296,202.184,143.5384,189.04,143.3616,205.992,132.8296,202.184" style="stroke: #A80036; stroke-width: 0.800000011920929;"/><path d="M261.7816,471.2 C253.8544,512.792 244.2032,563.4304 235.4152,609.5424 " fill="none" style="stroke: #A80036; stroke-width: 0.800000011920929;"/><polygon fill="#A80036" points="262.5432,467.2032,258.0504,473.6758,261.7935,471.1323,264.337,474.8754,262.5432,467.2032" style="stroke: #A80036; stroke-width: 0.800000011920929;"/><text fill="#000000" font-family="sans-serif" font-size="10.4" lengthAdjust="spacingAndGlyphs" textLength="24" x="254.8" y="551.6651">build</text><text fill="#000000" font-family="sans-serif" font-size="10.4" lengthAdjust="spacingAndGlyphs" textLength="32.8" x="252" y="563.7859">on rpg</text><path d="M290.5264,467.2032 C301.5776,543.036 317.3592,651.3224 325.3496,706.1464 " fill="none" style="stroke: #A80036; stroke-width: 0.800000011920929;"/><polygon fill="none" points="330.932,705.6224,327.6984,722.2632,319.8496,707.2376,330.932,705.6224" style="stroke: #A80036; stroke-width: 0.800000011920929;"/><path d="M468.6592,140.344 C436.8904,164.568 385.7152,206.704 350.4,251.2 C339.6632,264.728 329.648,280.0768 320.7032,295.3888 " fill="none" style="stroke: #A80036; stroke-width: 0.800000011920929;"/><polygon fill="#A80036" points="318.6928,298.8616,325.0701,294.2344,320.6973,295.4001,319.5316,291.0273,318.6928,298.8616" style="stroke: #A80036; stroke-width: 0.800000011920929;"/><text fill="#000000" font-family="sans-serif" font-size="10.4" lengthAdjust="spacingAndGlyphs" textLength="40.8" x="383.2" y="223.2651">add bus</text><path d="M197.8832,189.04 C211.4664,221.664 227.7768,260.832 242.1544,295.3584 " fill="none" style="stroke: #A80036; stroke-width: 0.800000011920929;"/><polygon fill="#A80036" points="243.7184,299.1136,243.9035,291.2367,242.1802,295.4212,237.9957,293.6978,243.7184,299.1136" style="stroke: #A80036; stroke-width: 0.800000011920929;"/><text fill="#000000" font-family="sans-serif" font-size="10.4" lengthAdjust="spacingAndGlyphs" textLength="57.6" x="212" y="223.2651">add branch</text></g></svg>